<?xml version="1.0" encoding="UTF-8"?>
<svg width="24px" height="24px" viewBox="0 0 24 24" version="1.1" xmlns="http://www.w3.org/2000/svg" xmlns:xlink="http://www.w3.org/1999/xlink">
    <!-- Generator: Sketch 53.2 (72643) - https://sketchapp.com -->
    <title>app_store_icon</title>
    <desc>Created with Sketch.</desc>
    <g id="app_store_icon" stroke="none" stroke-width="1" fill="none" fill-rule="evenodd">
        <g>
            <rect id="Rectangle" x="0" y="0" width="24" height="24"></rect>
            <path d="M18.0341243,11.6995569 C18.0627424,15.0308304 20.9644442,16.1320565 21,16.1441294 C20.9826557,16.2217413 20.5455793,17.7334479 19.4572243,19.268438 C18.5483829,20.6197467 17.5961806,21.9408731 16.0837575,21.965019 C14.6146951,21.9986508 14.1203824,21.105252 12.4353835,21.105252 C10.7347746,21.105252 10.208375,21.9408731 8.79915046,21.9986508 C7.35870614,22.0512544 6.25821016,20.5559325 5.31641453,19.2166968 C3.43369051,16.4821722 1.96809695,11.5107013 3.93320642,8.12768654 C4.88540862,6.46851743 6.62157329,5.40006081 8.47741365,5.37160313 C9.9195924,5.34228309 11.2577053,6.34002668 12.1439992,6.34002668 C13.0129487,6.34002668 14.6675952,5.14652873 16.3734073,5.32503601 C17.0871254,5.34573251 19.1181432,5.60530106 20.4285052,7.50506695 C20.322705,7.56801879 18.008975,8.92018988 18.0341243,11.6995569 Z M15.2590359,3.52616555 C14.4681357,4.45405846 13.2028688,5.16377581 11.9705562,5.07236629 C11.8092541,3.82022826 12.433649,2.48875367 13.1326244,1.67641619 C13.9226574,0.754559759 15.2945917,0.0482918245 16.3916188,-3.64153152e-14 C16.5355766,1.3012922 16.0169819,2.58361261 15.2590359,3.52616555 Z" id="app_store" fill="#FFFFFF"></path>
        </g>
    </g>
</svg>