<?xml version="1.0" encoding="UTF-8"?>
<svg width="50px" height="50px" viewBox="0 0 50 50" version="1.1" xmlns="http://www.w3.org/2000/svg" xmlns:xlink="http://www.w3.org/1999/xlink">
    <!-- Generator: Sketch 53.2 (72643) - https://sketchapp.com -->
    <title>linked_in_icon</title>
    <desc>Created with Sketch.</desc>
    <g id="Page-1" stroke="none" stroke-width="1" fill="none" fill-rule="evenodd">
        <g id="follow_web" transform="translate(-1240.000000, -25.000000)">
            <g id="Group-21" transform="translate(1120.000000, 25.000000)">
                <g id="linked_in_icon" transform="translate(120.000000, 0.000000)">
                    <circle id="Oval-Copy-2" stroke="#FFFFFF" opacity="0.300000012" cx="25" cy="25" r="24.5"></circle>
                    <path d="M33,26.1964881 L33,32 L29.5706819,32 L29.5706819,26.5851723 C29.5706819,25.2249235 29.0746681,24.2966068 27.8333686,24.2966068 C26.8857939,24.2966068 26.3218915,24.9222242 26.0738101,25.5274038 C25.9833417,25.7437531 25.9600551,26.044883 25.9600551,26.3477282 L25.9600551,32 L22.5295838,32 C22.5295838,32 22.5757852,22.8290592 22.5295838,21.8788814 L25.9597203,21.8788814 L25.9597203,23.3135094 C25.952764,23.3242393 25.9437246,23.3358086 25.9371776,23.34621 L25.9597203,23.34621 L25.9597203,23.3135094 C26.4154474,22.6248631 27.2293283,21.6411088 29.0510466,21.6411088 C31.3080325,21.6410723 33,23.0876711 33,26.1964881 L33,26.1964881 Z M18.9411648,17 C17.7676051,17 17,17.7552153 17,18.7483492 C17,19.7198408 17.7453972,20.4979757 18.895633,20.4979757 L18.9185477,20.4979757 C20.1148362,20.4979757 20.8588198,19.7199868 20.8588198,18.7483492 C20.8362771,17.7552153 20.1148362,17 18.9411648,17 L18.9411648,17 Z M17.2037399,32 L20.6329092,32 L20.6329092,21.8788814 L17.2037399,21.8788814 L17.2037399,32 L17.2037399,32 Z" id="LinkedIn" fill="#FFFFFF"></path>
                </g>
            </g>
        </g>
    </g>
</svg>