<?xml version="1.0" encoding="UTF-8"?>
<svg width="132px" height="118px" viewBox="0 0 132 118" version="1.1" xmlns="http://www.w3.org/2000/svg" xmlns:xlink="http://www.w3.org/1999/xlink">
    <!-- Generator: Sketch 53.2 (72643) - https://sketchapp.com -->
    <title>quote_icon</title>
    <desc>Created with Sketch.</desc>
    <g id="Page-1" stroke="none" stroke-width="1" fill="none" fill-rule="evenodd" opacity="0.400000006">
        <g id="assets" transform="translate(-169.000000, -1349.000000)" fill="#FFFFFF">
            <g id="quote_icon" transform="translate(169.000000, 1349.000000)">
                <path d="M125.793684,25.7965117 C125.129025,25.2064535 124.101316,25.7341017 124.30239,26.6475572 C125.35244,31.4020649 125.229562,36.0147316 124.430853,40.5252729 C124.514634,39.367851 124.525805,38.1877345 124.464365,37.0076181 C124.492292,36.6728735 124.525805,36.3438025 124.548146,36.009058 C125.05083,33.9041387 124.983805,31.8559558 124.475536,29.9098984 C124.067804,23.5440779 122.598851,17.0250692 120.130115,12.1003524 C124.051048,15.66907 125.709904,20.7696695 126.156734,26.1709717 C126.033856,26.0461517 125.933319,25.9043108 125.793684,25.7965117 Z M112.232397,56.8199578 C112.198885,56.9391042 112.170958,57.0809451 112.148616,57.2171124 C112.182128,54.8341849 112.087177,52.4342366 111.785567,50.0172673 C112.008982,49.8867736 112.232397,49.7392591 112.472568,49.5974182 C112.466983,52.0087138 112.455812,54.4086622 112.232397,56.8199578 Z M107.132951,8.85503215 C103.653263,8.09476482 99.9334037,8.30468938 96.9284726,9.40537493 C96.1688617,9.40537493 95.4148363,9.42806947 94.6552254,9.50182675 C94.4932496,9.51884766 94.3424445,9.54154221 94.186054,9.56423676 C97.0625216,7.02244746 100.475185,5.82531009 104.038653,5.70616372 C103.943702,5.75722645 103.865507,5.79126827 103.776141,5.83098373 C103.256701,6.14870739 103.46336,6.97138473 104.072166,6.98840564 C106.440364,7.07351019 108.439928,7.53307477 110.143467,8.25362665 C109.193953,8.25362665 108.194172,8.4465303 107.132951,8.85503215 Z M87.3439711,48.7633935 C81.9317439,44.1223586 80.1611804,34.3920715 80.6080103,27.6517909 C80.7364739,25.8021853 81.2056453,24.1398097 81.9317439,22.6476433 C81.8870609,22.9710406 81.8479633,23.2887642 81.8144511,23.6235088 C80.0438876,27.9071046 80.3008148,32.6105495 81.8647194,37.0019444 C81.903817,37.5466136 81.9485,38.0969563 82.0322806,38.6359518 C82.1942565,39.7536583 82.5964034,40.8316493 83.1549408,41.8415566 C83.6743805,43.3677649 84.4060645,44.8088687 85.4226025,46.1024579 C86.7630923,47.7988753 89.1927299,49.1832427 91.6056113,49.5860709 C92.197661,49.9888991 92.8064667,50.3690328 93.437614,50.709451 C91.3710256,50.9647646 89.3044373,50.4314428 87.3439711,48.7633935 Z M88.5615826,29.3028193 C88.5615826,28.5141837 88.1259235,27.7539164 88.433119,26.9993227 C88.6621193,29.5070702 88.9358027,32.0829013 90.0026091,34.5566069 C89.8573893,35.8501961 90.449439,37.1267644 90.4159267,38.3806382 C89.0251686,35.5211252 88.5615826,32.5140977 88.5615826,29.4560074 C88.5615826,29.4106184 88.5615826,29.3595556 88.5615826,29.3028193 Z M115.611548,2.2509189 C104.412873,-3.40002338 92.4210759,2.22255071 85.9643838,12.0719842 C73.3079267,19.1697039 73.3302682,38.7097091 82.5237935,50.8059028 C87.4947762,57.3419324 93.6889558,57.1263342 99.4251347,54.005834 C99.9278183,54.0512231 100.419331,54.0739176 100.9276,54.0512231 C102.106114,73.3132201 92.3484661,89.3128759 82.9594527,106.095494 C82.3283054,105.306858 80.9152059,105.233101 80.4013515,106.248682 C79.2172522,108.574873 77.8488357,110.918085 77.2902983,113.488242 C77.1115663,114.316593 77.3629081,115.207354 77.854421,115.893864 C77.6812744,117.788859 80.2337903,118.872524 81.6022069,117.102349 C82.0099391,116.569027 82.3953299,116.007337 82.8030622,115.474015 C93.4264432,107.576313 103.027701,97.2843356 110.154638,85.6363592 C119.07448,77.9202132 125.358025,67.4750478 126.916345,55.7192723 C129.435348,49.5179872 130.95457,42.8174222 131.613644,37.1551326 C133.361866,22.3015514 129.373909,9.21247127 115.611548,2.2509189 L115.611548,2.2509189 Z" id="Fill-21" transform="translate(104.000000, 59.000000) scale(-1, -1) translate(-104.000000, -59.000000) "></path>
                <path d="M49.7936844,25.7965117 C49.129025,25.2064535 48.1013162,25.7341017 48.3023896,26.6475572 C49.3524399,31.4020649 49.2295617,36.0147316 48.4308532,40.5252729 C48.5146338,39.367851 48.5258046,38.1877345 48.4643655,37.0076181 C48.4922923,36.6728735 48.5258046,36.3438025 48.5481461,36.009058 C49.0508297,33.9041387 48.9838052,31.8559558 48.4755362,29.9098984 C48.0678039,23.5440779 46.5988506,17.0250692 44.1301154,12.1003524 C48.0510478,15.66907 49.7099038,20.7696695 50.1567337,26.1709717 C50.0338555,26.0461517 49.9333188,25.9043108 49.7936844,25.7965117 Z M36.2323968,56.8199578 C36.1988846,56.9391042 36.1709577,57.0809451 36.1486162,57.2171124 C36.1821285,54.8341849 36.0871771,52.4342366 35.7855669,50.0172673 C36.0089819,49.8867736 36.2323968,49.7392591 36.4725679,49.5974182 C36.4669825,52.0087138 36.4558118,54.4086622 36.2323968,56.8199578 Z M31.1329505,8.85503215 C27.6532627,8.09476482 23.9334037,8.30468938 20.9284726,9.40537493 C20.1688617,9.40537493 19.4148363,9.42806947 18.6552254,9.50182675 C18.4932496,9.51884766 18.3424445,9.54154221 18.186054,9.56423676 C21.0625216,7.02244746 24.475185,5.82531009 28.0386534,5.70616372 C27.9437021,5.75722645 27.8655069,5.79126827 27.7761409,5.83098373 C27.2567011,6.14870739 27.4633599,6.97138473 28.0721657,6.98840564 C30.4403642,7.07351019 32.439928,7.53307477 34.143467,8.25362665 C33.1939535,8.25362665 32.1941716,8.4465303 31.1329505,8.85503215 Z M11.3439711,48.7633935 C5.93174391,44.1223586 4.16118041,34.3920715 4.60801031,27.6517909 C4.73647391,25.8021853 5.20564531,24.1398097 5.93174391,22.6476433 C5.88706091,22.9710406 5.8479633,23.2887642 5.81445106,23.6235088 C4.04388756,27.9071046 4.30081475,32.6105495 5.86471942,37.0019444 C5.90381704,37.5466136 5.94850003,38.0969563 6.03228063,38.6359518 C6.19425647,39.7536583 6.59640339,40.8316493 7.15494077,41.8415566 C7.67438053,43.3677649 8.4060645,44.8088687 9.42260254,46.1024579 C10.7630923,47.7988753 13.1927299,49.1832427 15.6056113,49.5860709 C16.197661,49.9888991 16.8064667,50.3690328 17.437614,50.709451 C15.3710256,50.9647646 13.3044373,50.4314428 11.3439711,48.7633935 Z M12.5615826,29.3028193 C12.5615826,28.5141837 12.1259235,27.7539164 12.433119,26.9993227 C12.6621193,29.5070702 12.9358027,32.0829013 14.0026091,34.5566069 C13.8573893,35.8501961 14.449439,37.1267644 14.4159267,38.3806382 C13.0251686,35.5211252 12.5615826,32.5140977 12.5615826,29.4560074 C12.5615826,29.4106184 12.5615826,29.3595556 12.5615826,29.3028193 Z M39.611548,2.2509189 C28.4128735,-3.40002338 16.4210759,2.22255071 9.9643838,12.0719842 C-2.69207326,19.1697039 -2.66973176,38.7097091 6.52379353,50.8059028 C11.4947762,57.3419324 17.6889558,57.1263342 23.4251347,54.005834 C23.9278183,54.0512231 24.4193312,54.0739176 24.9276002,54.0512231 C26.1061141,73.3132201 16.3484661,89.3128759 6.95945269,106.095494 C6.32830545,105.306858 4.91520587,105.233101 4.40135148,106.248682 C3.21725223,108.574873 1.84883565,110.918085 1.29029827,113.488242 C1.11156631,114.316593 1.36290813,115.207354 1.85442102,115.893864 C1.68127444,117.788859 4.23379027,118.872524 5.60220685,117.102349 C6.00993914,116.569027 6.39532993,116.007337 6.80306222,115.474015 C17.4264432,107.576313 27.0277008,97.2843356 34.1546378,85.6363592 C43.0744797,77.9202132 49.3580253,67.4750478 50.9163446,55.7192723 C53.4353482,49.5179872 54.9545698,42.8174222 55.6136439,37.1551326 C57.3618659,22.3015514 53.373909,9.21247127 39.611548,2.2509189 L39.611548,2.2509189 Z" id="Fill-21-Copy" transform="translate(28.000000, 59.000000) scale(-1, -1) translate(-28.000000, -59.000000) "></path>
            </g>
        </g>
    </g>
</svg>