<?xml version="1.0" encoding="UTF-8"?>
<svg width="50px" height="50px" viewBox="0 0 50 50" version="1.1" xmlns="http://www.w3.org/2000/svg" xmlns:xlink="http://www.w3.org/1999/xlink">
    <!-- Generator: Sketch 53.2 (72643) - https://sketchapp.com -->
    <title>twitter_icon</title>
    <desc>Created with Sketch.</desc>
    <g id="Page-1" stroke="none" stroke-width="1" fill="none" fill-rule="evenodd">
        <g id="follow_web" transform="translate(-1180.000000, -25.000000)">
            <g id="Group-21" transform="translate(1120.000000, 25.000000)">
                <g id="twitter_icon" transform="translate(60.000000, 0.000000)">
                    <circle id="Oval-Copy" stroke="#403D39" opacity="0.300000012" cx="25" cy="25" r="24.5"></circle>
                    <path d="M32.1592158,21.4853078 C32.1663255,21.6374884 32.1702036,21.7909063 32.1702036,21.9443242 C32.1702036,26.6155274 28.456318,32 21.6613164,32 C19.5755682,32 17.6339545,31.4166409 16,30.4132385 C16.2889152,30.4460254 16.5830012,30.4627281 16.8809652,30.4627281 C18.6118712,30.4627281 20.2038134,29.897309 21.4680599,28.9495824 C19.852203,28.9211259 18.4877733,27.8991649 18.0178822,26.4942778 C18.2428094,26.5351067 18.4748465,26.5579957 18.7120543,26.5579957 C19.0487989,26.5579957 19.3758483,26.5159295 19.6854465,26.4348902 C17.9959065,26.1107331 16.7232576,24.6823384 16.7232576,22.9687597 C16.7232576,22.9539128 16.7232576,22.9384473 16.7239039,22.924219 C17.2215878,23.1883699 17.7910158,23.347974 18.3959927,23.365914 C17.4057955,22.7330653 16.7536357,21.6504794 16.7536357,20.4243736 C16.7536357,19.7760594 16.935258,19.1685741 17.2532586,18.6464584 C19.0740062,20.785648 21.796402,22.192391 24.8652375,22.3408599 C24.8018959,22.0816579 24.7702251,21.812558 24.7702251,21.5347974 C24.7702251,19.5830498 26.42357,18 28.4627814,18 C29.525369,18 30.4838953,18.4293226 31.1586772,19.1159913 C32.0008618,18.9576245 32.7894,18.6643984 33.5049014,18.2579647 C33.226974,19.0838231 32.6433265,19.7760594 31.878703,20.2140427 C32.6265216,20.1286731 33.340084,19.9393752 34,19.6579029 C33.5074868,20.3656047 32.8811807,20.9885555 32.1592158,21.4853078 L32.1592158,21.4853078 Z" id="Path" fill="#403D39"></path>
                </g>
            </g>
        </g>
    </g>
</svg>